<svg xmlns="http://www.w3.org/2000/svg" xmlns:xlink="http://www.w3.org/1999/xlink" version="1.0" width="96" height="96"><defs><radialGradient cx="28" cy="28" r="4" fx="28" fy="28" id="p" xlink:href="#c" gradientUnits="userSpaceOnUse" gradientTransform="translate(33 19)"/><radialGradient cx="28" cy="28" r="4" fx="28" fy="28" id="q" xlink:href="#c" gradientUnits="userSpaceOnUse" gradientTransform="translate(33 7)"/><radialGradient cx="28" cy="28" r="4" fx="28" fy="28" id="r" xlink:href="#c" gradientUnits="userSpaceOnUse" gradientTransform="translate(33 -5)"/><radialGradient cx="28" cy="28" r="4" fx="28" fy="28" id="s" xlink:href="#c" gradientUnits="userSpaceOnUse" gradientTransform="translate(33 43)"/><radialGradient cx="28" cy="28" r="4" fx="28" fy="28" id="t" xlink:href="#c" gradientUnits="userSpaceOnUse" gradientTransform="translate(33 31)"/><radialGradient cx="28" cy="28" r="4" fx="28" fy="28" id="u" xlink:href="#c" gradientUnits="userSpaceOnUse" gradientTransform="translate(45 19)"/><radialGradient cx="28" cy="28" r="4" fx="28" fy="28" id="v" xlink:href="#c" gradientUnits="userSpaceOnUse" gradientTransform="translate(45 7)"/><radialGradient cx="28" cy="28" r="4" fx="28" fy="28" id="w" xlink:href="#c" gradientUnits="userSpaceOnUse" gradientTransform="translate(45 -5)"/><radialGradient cx="28" cy="28" r="4" fx="28" fy="28" id="x" xlink:href="#c" gradientUnits="userSpaceOnUse" gradientTransform="translate(45 43)"/><radialGradient cx="28" cy="28" r="4" fx="28" fy="28" id="y" xlink:href="#c" gradientUnits="userSpaceOnUse" gradientTransform="translate(45 31)"/><radialGradient cx="28" cy="28" r="4" fx="28" fy="28" id="z" xlink:href="#c" gradientUnits="userSpaceOnUse" gradientTransform="translate(21 19)"/><radialGradient cx="28" cy="28" r="4" fx="28" fy="28" id="A" xlink:href="#c" gradientUnits="userSpaceOnUse" gradientTransform="translate(21 7)"/><radialGradient cx="28" cy="28" r="4" fx="28" fy="28" id="B" xlink:href="#c" gradientUnits="userSpaceOnUse" gradientTransform="translate(21 -5)"/><radialGradient cx="28" cy="28" r="4" fx="28" fy="28" id="C" xlink:href="#c" gradientUnits="userSpaceOnUse" gradientTransform="translate(21 43)"/><radialGradient cx="28" cy="28" r="4" fx="28" fy="28" id="D" xlink:href="#c" gradientUnits="userSpaceOnUse" gradientTransform="translate(21 31)"/><radialGradient cx="28" cy="28" r="4" fx="28" fy="28" id="E" xlink:href="#c" gradientUnits="userSpaceOnUse" gradientTransform="translate(-3 19)"/><radialGradient cx="28" cy="28" r="4" fx="28" fy="28" id="F" xlink:href="#c" gradientUnits="userSpaceOnUse" gradientTransform="translate(-3 7)"/><radialGradient cx="28" cy="28" r="4" fx="28" fy="28" id="G" xlink:href="#c" gradientUnits="userSpaceOnUse" gradientTransform="translate(-3 -5)"/><radialGradient cx="28" cy="28" r="4" fx="28" fy="28" id="H" xlink:href="#c" gradientUnits="userSpaceOnUse" gradientTransform="translate(-3 43)"/><radialGradient cx="28" cy="28" r="4" fx="28" fy="28" id="I" xlink:href="#c" gradientUnits="userSpaceOnUse" gradientTransform="translate(-3 31)"/><radialGradient cx="28" cy="28" r="4" fx="28" fy="28" id="J" xlink:href="#c" gradientUnits="userSpaceOnUse" gradientTransform="translate(9 19)"/><radialGradient cx="28" cy="28" r="4" fx="28" fy="28" id="K" xlink:href="#c" gradientUnits="userSpaceOnUse" gradientTransform="translate(9 7)"/><radialGradient cx="28" cy="28" r="4" fx="28" fy="28" id="L" xlink:href="#c" gradientUnits="userSpaceOnUse" gradientTransform="translate(9 -5)"/><radialGradient cx="28" cy="28" r="4" fx="28" fy="28" id="M" xlink:href="#c" gradientUnits="userSpaceOnUse" gradientTransform="translate(9 43)"/><radialGradient cx="28" cy="28" r="4" fx="28" fy="28" id="N" xlink:href="#c" gradientUnits="userSpaceOnUse" gradientTransform="translate(9 31)"/><radialGradient cx="47.5" cy="79.699" r="37.054" fx="47.5" fy="79.699" id="o" xlink:href="#f" gradientUnits="userSpaceOnUse" gradientTransform="matrix(1.32772 0 0 1.22843 -15.567 -18.146)"/><radialGradient cx="48" cy="90.172" r="42" fx="48" fy="90.172" id="V" xlink:href="#g" gradientUnits="userSpaceOnUse" gradientTransform="matrix(1.15731 0 0 .9959 -7.551 .197)"/><linearGradient id="d"><stop style="stop-color:#f3cb20;stop-opacity:0" offset="0"/><stop style="stop-color:#f3cb20;stop-opacity:1" offset=".22"/><stop style="stop-color:#f3cb20;stop-opacity:1" offset=".561"/><stop style="stop-color:#f3cb20;stop-opacity:0" offset="1"/></linearGradient><linearGradient id="c"><stop style="stop-color:#ffdf5e;stop-opacity:1" offset="0"/><stop style="stop-color:#ffdf5e;stop-opacity:0" offset="1"/></linearGradient><linearGradient id="f"><stop style="stop-color:#4b3820;stop-opacity:1" offset="0"/><stop style="stop-color:#19140b;stop-opacity:1" offset="1"/></linearGradient><linearGradient x1="48" y1="90" x2="48" y2="5.988" id="T" xlink:href="#a" gradientUnits="userSpaceOnUse"/><linearGradient id="a"><stop style="stop-color:#a0a0a0;stop-opacity:1" offset="0"/><stop style="stop-color:#dcdcdc;stop-opacity:1" offset="1"/></linearGradient><linearGradient id="e"><stop style="stop-color:#919191;stop-opacity:1" offset="0"/><stop style="stop-color:#e6e6e6;stop-opacity:1" offset="1"/></linearGradient><linearGradient x1="45.448" y1="92.54" x2="45.448" y2="7.017" id="i" gradientUnits="userSpaceOnUse" gradientTransform="scale(1.00587 .99417)"><stop style="stop-color:#000;stop-opacity:1" offset="0"/><stop style="stop-color:#000;stop-opacity:.58823532" offset="1"/></linearGradient><linearGradient id="b"><stop style="stop-color:#fff;stop-opacity:1" offset="0"/><stop style="stop-color:#fff;stop-opacity:0" offset="1"/></linearGradient><linearGradient x1="36.357" y1="6" x2="36.357" y2="63.893" id="S" xlink:href="#b" gradientUnits="userSpaceOnUse"/><linearGradient x1="15.594" y1="61.448" x2="111.614" y2="61.448" id="O" xlink:href="#d" gradientUnits="userSpaceOnUse" gradientTransform="matrix(.70315 0 0 .69956 3.197 4.047)" spreadMethod="reflect"/><linearGradient x1="43.179" y1="13" x2="43.179" y2="83.295" id="U" xlink:href="#e" gradientUnits="userSpaceOnUse" gradientTransform="translate(-1.412 -1.412) scale(1.02941)"/><linearGradient id="g"><stop style="stop-color:#fff;stop-opacity:1" offset="0"/><stop style="stop-color:#fff;stop-opacity:0" offset="1"/></linearGradient><linearGradient x1="48" y1="20.221" x2="48" y2="138.661" id="X" xlink:href="#c" gradientUnits="userSpaceOnUse"/><linearGradient x1="45.448" y1="92.54" x2="45.448" y2="7.017" id="h" gradientUnits="userSpaceOnUse" gradientTransform="matrix(1.00587 0 0 .99417 100 0)"><stop style="stop-color:#000;stop-opacity:1" offset="0"/><stop style="stop-color:#000;stop-opacity:.58823532" offset="1"/></linearGradient><linearGradient x1="32.251" y1="6.132" x2="32.251" y2="90.239" id="k" xlink:href="#h" gradientUnits="userSpaceOnUse" gradientTransform="matrix(1.0238 0 0 1.0119 -1.143 -98.071)"/><linearGradient x1="32.251" y1="6.132" x2="32.251" y2="90.239" id="l" xlink:href="#h" gradientUnits="userSpaceOnUse" gradientTransform="matrix(1.0238 0 0 1.0119 -1.143 -98.071)"/><linearGradient x1="32.251" y1="6.132" x2="32.251" y2="90.239" id="m" xlink:href="#h" gradientUnits="userSpaceOnUse" gradientTransform="matrix(1.0238 0 0 1.0119 -1.143 -98.071)"/><linearGradient x1="32.251" y1="6.132" x2="32.251" y2="90.239" id="n" xlink:href="#h" gradientUnits="userSpaceOnUse" gradientTransform="translate(0 -97)"/><linearGradient x1="32.251" y1="6.132" x2="32.251" y2="90.239" id="j" xlink:href="#h" gradientUnits="userSpaceOnUse" gradientTransform="matrix(1.0238 0 0 1.0119 -1.143 -98.071)"/><linearGradient x1="15.594" y1="61.448" x2="111.614" y2="61.448" id="R" xlink:href="#d" gradientUnits="userSpaceOnUse" gradientTransform="matrix(.70315 0 0 .69956 3.197 4.047)" spreadMethod="reflect"/><linearGradient x1="15.594" y1="61.448" x2="111.614" y2="61.448" id="Q" xlink:href="#d" gradientUnits="userSpaceOnUse" gradientTransform="matrix(.70315 0 0 .69956 3.197 4.047)" spreadMethod="reflect"/><linearGradient x1="15.594" y1="61.448" x2="111.614" y2="61.448" id="P" xlink:href="#d" gradientUnits="userSpaceOnUse" gradientTransform="matrix(.70315 0 0 .69956 3.197 4.047)" spreadMethod="reflect"/><clipPath id="W"><rect width="84" height="84" rx="6" ry="6" x="6" y="6" style="fill:#fff;fill-opacity:1;fill-rule:nonzero;stroke:none"/></clipPath></defs><g style="display:inline" transform="scale(1 -1)"><path d="M12-95.031c-5.511 0-10.031 4.52-10.031 10.031v71C1.969-8.489 6.489-3.969 12-3.969h72c5.511 0 10.031-4.52 10.031-10.031v-71c0-5.511-4.52-10.031-10.031-10.031H12z" style="opacity:.07999998;fill:url(#j);fill-opacity:1;fill-rule:nonzero;stroke:none;display:inline"/><path d="M12-94.031c-4.972 0-9.031 4.06-9.031 9.031v71c0 4.972 4.06 9.031 9.031 9.031h72c4.972 0 9.031-4.06 9.031-9.031v-71c0-4.972-4.06-9.031-9.031-9.031H12z" style="opacity:.1;fill:url(#k);fill-opacity:1;fill-rule:nonzero;stroke:none;display:inline"/><path d="M12-93c-4.41 0-8 3.59-8 8v71c0 4.41 3.59 8 8 8h72c4.41 0 8-3.59 8-8v-71c0-4.41-3.59-8-8-8H12z" style="opacity:.2;fill:url(#l);fill-opacity:1;fill-rule:nonzero;stroke:none;display:inline"/><rect width="86" height="85" rx="7" ry="7" x="5" y="-92" style="opacity:.3;fill:url(#m);fill-opacity:1;fill-rule:nonzero;stroke:none;display:inline"/><rect width="84" height="84" rx="6" ry="6" x="6" y="-91" style="opacity:.45;fill:url(#n);fill-opacity:1;fill-rule:nonzero;stroke:none;display:inline"/></g><rect width="74.107" height="74.25" rx="5.567" ry="5.838" x="10.446" y="11.5" style="fill:url(#o);fill-opacity:1;stroke:none;display:inline"/><path d="M19 13c-3.29 0-6 2.71-6 6v58c0 3.29 2.71 6 6 6h58c3.29 0 6-2.71 6-6V19c0-3.29-2.71-6-6-6H19zm0 4h58c1.143 0 2 .857 2 2v58c0 1.143-.857 2-2 2H19c-1.143 0-2-.857-2-2V19c0-1.143.857-2 2-2z" style="font-size:medium;font-style:normal;font-variant:normal;font-weight:400;font-stretch:normal;text-indent:0;text-align:start;text-decoration:none;line-height:normal;letter-spacing:normal;word-spacing:normal;text-transform:none;direction:ltr;block-progression:tb;writing-mode:lr-tb;text-anchor:start;opacity:.15;color:#000;fill:#000;fill-opacity:1;stroke:none;stroke-width:4;marker:none;visibility:visible;display:inline;overflow:visible;enable-background:accumulate;font-family:Abandoned Bitplane;-inkscape-font-specification:Abandoned Bitplane"/><path d="M17 14c-1.662 0-3 1.338-3 3v62c0 1.662 1.338 3 3 3h62c1.662 0 3-1.338 3-3V17c0-1.662-1.338-3-3-3H17zm0 1.938h62c.618 0 1.063.444 1.063 1.062v62c0 .618-.445 1.063-1.063 1.063H17c-.618 0-1.063-.445-1.063-1.063V17c0-.618.445-1.063 1.063-1.063z" style="opacity:.3;color:#000;fill:#000;fill-opacity:1;fill-rule:nonzero;stroke:none;stroke-width:1;marker:none;visibility:visible;display:inline;overflow:visible;enable-background:accumulate"/><path d="M17 14c-1.662 0-3 1.338-3 3v62c0 1.662 1.338 3 3 3h62c1.662 0 3-1.338 3-3V17c0-1.662-1.338-3-3-3H17zm0 .969h62c1.14 0 2.031.89 2.031 2.031v62c0 1.14-.89 2.031-2.031 2.031H17A2.008 2.008 0 0 1 14.969 79V17c0-1.14.89-2.031 2.031-2.031z" style="opacity:.6;color:#000;fill:#000;fill-opacity:1;fill-rule:nonzero;stroke:none;stroke-width:1;marker:none;visibility:visible;display:inline;overflow:visible;enable-background:accumulate"/><g><path d="M73 12v70M61 12v70M49 12v70M37 12v70M25 12v70" style="opacity:.07999998;fill:none;stroke:#f3c770;stroke-width:1.99999976;stroke-linecap:butt;stroke-linejoin:miter;stroke-miterlimit:4;stroke-opacity:1;stroke-dasharray:none;display:inline"/><g><path d="M13 71h70M13 59h70M13 47h70M13 35h70M13 23h70" style="opacity:.07999998;fill:none;stroke:#f3c770;stroke-width:1.99999976;stroke-linecap:butt;stroke-linejoin:miter;stroke-miterlimit:4;stroke-opacity:1;stroke-dasharray:none;display:inline"/></g><path d="M13 5h70" style="opacity:.07999998;fill:none;stroke:#f3c770;stroke-width:1.99999976;stroke-linecap:butt;stroke-linejoin:miter;stroke-miterlimit:4;stroke-opacity:1;stroke-dasharray:none;display:inline"/><g style="opacity:.75"><path d="M57 46h8v2h-8v-2zm5-3v8h-2v-8h2z" style="opacity:.15;fill:url(#p);fill-opacity:1;fill-rule:nonzero;stroke:none"/><path d="M57 34h8v2h-8v-2zm5-3v8h-2v-8h2z" style="opacity:.15;fill:url(#q);fill-opacity:1;fill-rule:nonzero;stroke:none"/><path d="M57 22h8v2h-8v-2zm5-3v8h-2v-8h2z" style="opacity:.15;fill:url(#r);fill-opacity:1;fill-rule:nonzero;stroke:none"/><path d="M57 70h8v2h-8v-2zm5-3v8h-2v-8h2z" style="opacity:.15;fill:url(#s);fill-opacity:1;fill-rule:nonzero;stroke:none"/><path d="M57 58h8v2h-8v-2zm5-3v8h-2v-8h2z" style="opacity:.15;fill:url(#t);fill-opacity:1;fill-rule:nonzero;stroke:none"/><path d="M69 46h8v2h-8v-2zm5-3v8h-2v-8h2z" style="opacity:.15;fill:url(#u);fill-opacity:1;fill-rule:nonzero;stroke:none"/><path d="M69 34h8v2h-8v-2zm5-3v8h-2v-8h2z" style="opacity:.15;fill:url(#v);fill-opacity:1;fill-rule:nonzero;stroke:none"/><path d="M69 22h8v2h-8v-2zm5-3v8h-2v-8h2z" style="opacity:.15;fill:url(#w);fill-opacity:1;fill-rule:nonzero;stroke:none"/><path d="M69 70h8v2h-8v-2zm5-3v8h-2v-8h2z" style="opacity:.15;fill:url(#x);fill-opacity:1;fill-rule:nonzero;stroke:none"/><path d="M69 58h8v2h-8v-2zm5-3v8h-2v-8h2z" style="opacity:.15;fill:url(#y);fill-opacity:1;fill-rule:nonzero;stroke:none"/><path d="M45 46h8v2h-8v-2zm5-3v8h-2v-8h2z" style="opacity:.15;fill:url(#z);fill-opacity:1;fill-rule:nonzero;stroke:none"/><path d="M45 34h8v2h-8v-2zm5-3v8h-2v-8h2z" style="opacity:.15;fill:url(#A);fill-opacity:1;fill-rule:nonzero;stroke:none"/><path d="M45 22h8v2h-8v-2zm5-3v8h-2v-8h2z" style="opacity:.15;fill:url(#B);fill-opacity:1;fill-rule:nonzero;stroke:none"/><path d="M45 70h8v2h-8v-2zm5-3v8h-2v-8h2z" style="opacity:.15;fill:url(#C);fill-opacity:1;fill-rule:nonzero;stroke:none"/><path d="M45 58h8v2h-8v-2zm5-3v8h-2v-8h2z" style="opacity:.15;fill:url(#D);fill-opacity:1;fill-rule:nonzero;stroke:none"/><path d="M21 46h8v2h-8v-2zm5-3v8h-2v-8h2z" style="opacity:.15;fill:url(#E);fill-opacity:1;fill-rule:nonzero;stroke:none"/><path d="M21 34h8v2h-8v-2zm5-3v8h-2v-8h2z" style="opacity:.15;fill:url(#F);fill-opacity:1;fill-rule:nonzero;stroke:none"/><path d="M21 22h8v2h-8v-2zm5-3v8h-2v-8h2z" style="opacity:.15;fill:url(#G);fill-opacity:1;fill-rule:nonzero;stroke:none"/><path d="M21 70h8v2h-8v-2zm5-3v8h-2v-8h2z" style="opacity:.15;fill:url(#H);fill-opacity:1;fill-rule:nonzero;stroke:none"/><path d="M21 58h8v2h-8v-2zm5-3v8h-2v-8h2z" style="opacity:.15;fill:url(#I);fill-opacity:1;fill-rule:nonzero;stroke:none"/><path d="M33 46h8v2h-8v-2zm5-3v8h-2v-8h2z" style="opacity:.15;fill:url(#J);fill-opacity:1;fill-rule:nonzero;stroke:none"/><path d="M33 34h8v2h-8v-2zm5-3v8h-2v-8h2z" style="opacity:.15;fill:url(#K);fill-opacity:1;fill-rule:nonzero;stroke:none"/><path d="M33 22h8v2h-8v-2zm5-3v8h-2v-8h2z" style="opacity:.15;fill:url(#L);fill-opacity:1;fill-rule:nonzero;stroke:none"/><path d="M33 70h8v2h-8v-2zm5-3v8h-2v-8h2z" style="opacity:.15;fill:url(#M);fill-opacity:1;fill-rule:nonzero;stroke:none"/><path d="M33 58h8v2h-8v-2zm5-3v8h-2v-8h2z" style="opacity:.15;fill:url(#N);fill-opacity:1;fill-rule:nonzero;stroke:none"/></g></g><g><path d="M30 27.25 25.656 52H11v2h16.344l3.593-20.594 5.157 31.75.984 5.447.984-5.447 2.22-15.094h7.624l1.125-3.5 3.563 12.876 2.625-5.532h31.5v-2h-32.75l-.875 1.813-3.938-14.188-2.718 8.532h-7.876l-1.53 10.343-5.063-31.125L31 22.176l-1 5.074z" style="fill:url(#O);fill-opacity:1;fill-rule:evenodd;stroke:none;display:inline"/><path d="M66 72.51c0 2.526 2.893 3.929 4.519 5.49C72.222 76.365 75 74.805 75 72.51c0-2.152-3.685-2.883-4.5-.378-.937-2.446-4.5-1.997-4.5.378z" style="fill:#f0c512;fill-opacity:1;fill-rule:evenodd;stroke:none;display:inline"/><text x="49.181" y="80.507" transform="scale(1.0335 .96758)" xml:space="preserve" style="font-size:10.9480629px;font-style:normal;font-variant:normal;font-weight:700;font-stretch:normal;text-align:start;line-height:100%;writing-mode:lr-tb;text-anchor:start;opacity:.8;fill:#f0c512;fill-opacity:1;stroke:none;display:inline;font-family:Liberation Sans;-inkscape-font-specification:Liberation Sans Bold"><tspan x="49.181" y="80.507">49</tspan></text><rect width="9" height="2" rx=".9" ry=".667" x="66" y="36" style="fill:#f0c512;fill-opacity:1;fill-rule:nonzero;stroke:none;display:inline"/><rect width="9" height="2" rx=".9" ry=".667" x="66" y="32" style="fill:#f0c512;fill-opacity:1;fill-rule:nonzero;stroke:none;display:inline"/><rect width="9" height="2" rx=".9" ry=".667" x="66" y="28" style="opacity:.5;fill:#f0c512;fill-opacity:1;fill-rule:nonzero;stroke:none;display:inline"/><rect width="9" height="2" rx=".9" ry=".667" x="66" y="24" style="opacity:.5;fill:#f0c512;fill-opacity:1;fill-rule:nonzero;stroke:none;display:inline"/><rect width="9" height="2" rx=".9" ry=".667" x="66" y="20" style="opacity:.5;fill:#f0c512;fill-opacity:1;fill-rule:nonzero;stroke:none;display:inline"/><path d="M30.625 19.063a1.085 1.085 0 0 0-.031.03c-.742.117-1.412.455-1.844.938-.432.484-.662 1.066-.813 1.594-.301 1.057-.332 2.086-.5 2.656a1.085 1.085 0 0 0-.03.125c-1.53 8.155-2.891 16.321-4.345 24.469-4.166.02-8.382-.077-12.593.063a1.085 1.085 0 0 0-.219.03c-1.227.283-1.967 1.31-2.219 2.25-.227.851-.178 1.663-.125 2.344.006.074-.037.181-.031.25h.063c-.054 1.059.387 2.046 1.125 2.626.734.577 1.715.804 2.687.656v.031c5.346-.042 10.76.085 16.156-.063A1.085 1.085 0 0 0 28.22 57c1.385-.449 2.028-1.71 2.25-2.75.2-.94.246-1.777.375-2.344 1.055 6.6 2.013 13.223 3.343 19.782a1.085 1.085 0 0 0 .094.25c.66 1.416 2.243 1.89 3.5 1.593a3.064 3.064 0 0 0 2.313-2.75h.062c.017-.083.015-.167.032-.25 1.136-5.772 1.876-11.59 2.75-17.344 1.519-.002 3.063 0 4.656-.062.729 2.539 1.32 5.189 2.25 7.781a1.085 1.085 0 0 0 .093.188c1.387 2.3 4.896 1.55 5.657-.875l.031.031 1.531-3.219c9.983-.017 19.98.04 29.969-.031a1.085 1.085 0 0 0 .188-.031c1.146-.218 1.95-1.086 2.28-1.969.28-.745.252-1.487.188-2.188h.031c.022-.096-.012-.184 0-.28.006-.044-.003-.083 0-.126.187-2.05-1.56-3.885-3.656-3.593v-.032H54.97c-1.012-3.523-1.883-7.14-3.063-10.687a1.085 1.085 0 0 0-.093-.188c-1.42-2.506-5.355-1.486-5.75 1.219h-.032l-1.812 5.844c-1.988.015-4.067-.102-6.219.125l-.031-.375c-.024-.278-.11-.574-.219-.907h.031c-1.276-7.49-2.266-15.081-3.843-22.593a1.085 1.085 0 0 0-.032-.157c-.503-1.348-1.884-2.151-3.281-2z" style="opacity:.05;fill:url(#P);fill-opacity:1;fill-rule:evenodd;stroke:none;display:inline"/><path d="M30.75 20.156c-2.11.332-1.814 2.871-2.274 4.435-1.583 8.44-2.99 16.921-4.507 25.378-4.486.043-9-.085-13.469.062-1.671.384-1.648 2.33-1.531 3.687-.217 1.532 1.373 2.642 2.795 2.313 5.368-.042 10.752.084 16.111-.062 1.952-.632 1.477-3.059 1.96-4.635l1.009-5.803c1.473 8.657 2.668 17.372 4.406 25.938.862 1.848 3.908 1.125 3.85-.907 1.217-6.115 1.978-12.305 2.931-18.468 2.123-.042 4.263.083 6.375-.063.852 2.82 1.479 5.74 2.469 8.5.937 1.554 3.401.977 3.778-.735l1.847-3.858c10.207-.022 20.427.041 30.625-.032 1.539-.292 1.821-2.031 1.625-3.336.345-1.54-1.036-3.029-2.604-2.695h-31.99c-1.12-3.8-2.036-7.695-3.281-11.438-.961-1.696-3.724-.887-3.797 1.015L45 46.032c-2.38.079-4.805-.162-7.156.124-1.217 1.183-.74-1.408-1.116-2.17-1.28-7.517-2.287-15.09-3.853-22.548-.316-.848-1.228-1.379-2.125-1.282z" style="opacity:.07999998;fill:url(#Q);fill-opacity:1;fill-rule:evenodd;stroke:none;display:inline"/><path d="M30.875 21.094a1.089 1.089 0 0 0-.938.875l-1 5.062a1.089 1.089 0 0 0 0 .032L24.75 50.906H11A1.089 1.089 0 0 0 9.906 52v2A1.089 1.089 0 0 0 11 55.094h16.344a1.089 1.089 0 0 0 1.062-.907l2.5-14.28 4.125 25.437L36 70.78a1.089 1.089 0 0 0 2.125 0l1-5.437a1.089 1.089 0 0 0 0-.031l2.094-14.157h6.687a1.089 1.089 0 0 0 1.032-.75l2.593 9.313a1.089 1.089 0 0 0 2.032.187L55.906 55H86.72a1.089 1.089 0 0 0 1.094-1.094v-2a1.089 1.089 0 0 0-1.094-1.093h-32.75a1.089 1.089 0 0 0-.5.124l-3.25-11.687a1.089 1.089 0 0 0-2.094-.063l-2.469 7.782h-7.093a1.089 1.089 0 0 0-1.063.937l-.531 3.5-3.938-24.312a1.089 1.089 0 0 0 0-.032l-.968-5.093a1.089 1.089 0 0 0-1.188-.875z" style="opacity:.2;fill:url(#R);fill-opacity:1;fill-rule:evenodd;stroke:none;display:inline"/></g><g style="display:inline"><path d="M12 6c-3.324 0-6 2.676-6 6v72c0 .335.041.65.094.969.048.295.097.597.187.875l.032.094c.098.287.234.547.375.812.144.274.315.536.5.781a6.105 6.105 0 0 0 2.094 1.781c.278.14.573.247.874.344a4.843 4.843 0 0 1-.719-.375c-.007-.004-.023.005-.03 0-.033-.02-.063-.042-.095-.062-.12-.077-.23-.164-.343-.25-.106-.081-.214-.161-.313-.25a5.042 5.042 0 0 1-.5-.531 5.092 5.092 0 0 1-.312-.407c-.025-.038-.039-.086-.063-.125-.065-.103-.13-.204-.187-.312a5.371 5.371 0 0 1-.282-.625c-.007-.022-.023-.04-.03-.063-.033-.092-.037-.187-.063-.281-.03-.107-.07-.203-.094-.313A5.098 5.098 0 0 1 7 85V13c0-2.782 2.218-5 5-5h72c2.782 0 5 2.218 5 5v72c0 .364-.052.721-.125 1.063a4.896 4.896 0 0 1-.156.593c-.008.022-.024.04-.031.063a5.482 5.482 0 0 1-.22.531c-.04.083-.078.17-.124.25-.055.097-.127.188-.188.281a5.092 5.092 0 0 1-.312.406 5.05 5.05 0 0 1-.469.5l-.031.032a4.818 4.818 0 0 1-.438.344c-.102.073-.204.153-.312.218-.008.005-.024-.004-.031 0a4.843 4.843 0 0 1-.72.375c.302-.097.597-.204.876-.344a6.105 6.105 0 0 0 2.094-1.78c.184-.246.355-.508.5-.782a5.69 5.69 0 0 0 .374-.813l.032-.093c.09-.278.139-.58.187-.875.053-.318.094-.634.094-.969V12c0-3.324-2.676-6-6-6H12z" style="opacity:.5;fill:url(#S);fill-opacity:1;fill-rule:nonzero;stroke:none"/><path d="M12 6c-3.324 0-6 2.676-6 6v72c0 3.324 2.676 6 6 6h72c3.324 0 6-2.676 6-6V12c0-3.324-2.676-6-6-6H12zm5 7h62c2.216 0 4 1.784 4 4v62c0 2.216-1.784 4-4 4H17c-2.216 0-4-1.784-4-4V17c0-2.216 1.784-4 4-4z" style="fill:url(#T);fill-opacity:1;fill-rule:nonzero;stroke:none;display:inline"/><path d="M12 6c-3.324 0-6 2.676-6 6v72c0 .335.041.65.094.969.048.295.097.597.187.875l.032.094c.098.287.234.547.375.812.144.274.315.536.5.781a6.105 6.105 0 0 0 2.094 1.781c.278.14.573.247.874.344a4.843 4.843 0 0 1-.719-.375c-.007-.004-.023.005-.03 0-.033-.02-.063-.042-.095-.062-.12-.077-.23-.164-.343-.25-.106-.081-.214-.161-.313-.25a5.042 5.042 0 0 1-.5-.531 5.092 5.092 0 0 1-.312-.407c-.025-.038-.039-.086-.063-.125-.065-.103-.13-.204-.187-.312a5.371 5.371 0 0 1-.282-.625c-.007-.022-.023-.04-.03-.063-.033-.092-.037-.187-.063-.281-.03-.107-.07-.203-.094-.313A5.098 5.098 0 0 1 7 85V13c0-2.782 2.218-5 5-5h72c2.782 0 5 2.218 5 5v72c0 .364-.052.721-.125 1.063a4.896 4.896 0 0 1-.156.593c-.008.022-.024.04-.031.063a5.482 5.482 0 0 1-.22.531c-.04.083-.078.17-.124.25-.055.097-.127.188-.188.281a5.092 5.092 0 0 1-.312.406 5.05 5.05 0 0 1-.469.5l-.031.032a4.818 4.818 0 0 1-.438.344c-.102.073-.204.153-.312.218-.008.005-.024-.004-.031 0a4.843 4.843 0 0 1-.72.375c.302-.097.597-.204.876-.344a6.105 6.105 0 0 0 2.094-1.78c.184-.246.355-.508.5-.782a5.69 5.69 0 0 0 .374-.813l.032-.093c.09-.278.139-.58.187-.875.053-.318.094-.634.094-.969V12c0-3.324-2.676-6-6-6H12z" style="opacity:.5;fill:url(#S);fill-opacity:1;fill-rule:nonzero;stroke:none;display:inline"/><path d="M17 12c-2.753 0-5 2.247-5 5v62c0 2.753 2.247 5 5 5h62c2.753 0 5-2.247 5-5V17c0-2.753-2.247-5-5-5H17zm0 2h62c1.68 0 3 1.32 3 3v62c0 1.68-1.32 3-3 3H17c-1.68 0-3-1.32-3-3V17c0-1.68 1.32-3 3-3z" style="fill:url(#U);fill-opacity:1;fill-rule:nonzero;stroke:none;display:inline"/><path d="M12 90c-3.324 0-6-2.676-6-6V12c0-.335.041-.65.094-.969.048-.295.097-.597.187-.875l.032-.094a5.69 5.69 0 0 1 .375-.812c.144-.274.315-.536.5-.781a6.105 6.105 0 0 1 2.094-1.781c.278-.14.573-.247.874-.344-.256.1-.486.236-.719.375-.007.004-.023-.005-.03 0-.033.019-.063.042-.095.062-.12.077-.23.164-.343.25-.106.081-.214.161-.313.25a5.042 5.042 0 0 0-.5.532c-.107.13-.218.265-.312.406-.025.038-.039.086-.063.125-.065.103-.13.204-.187.312a5.371 5.371 0 0 0-.282.625c-.007.022-.023.04-.03.063-.033.092-.037.187-.063.281-.03.107-.07.203-.094.313A5.098 5.098 0 0 0 7 11v72c0 2.782 2.218 5 5 5h72c2.782 0 5-2.218 5-5V11c0-.364-.052-.721-.125-1.063a4.896 4.896 0 0 0-.156-.593c-.008-.022-.024-.04-.031-.063a5.482 5.482 0 0 0-.22-.531c-.04-.083-.078-.17-.124-.25-.055-.097-.127-.188-.188-.281a5.092 5.092 0 0 0-.312-.406 5.05 5.05 0 0 0-.469-.5l-.031-.032a4.818 4.818 0 0 0-.438-.343c-.102-.074-.204-.154-.312-.22-.008-.004-.024.005-.031 0a4.843 4.843 0 0 0-.72-.374c.302.097.597.204.876.343a6.105 6.105 0 0 1 2.094 1.782c.184.245.355.507.5.781.14.265.276.525.374.813l.032.093c.09.278.139.58.187.875.053.318.094.634.094.969v72c0 3.324-2.676 6-6 6H12z" style="opacity:.25;fill:url(#V);fill-opacity:1;fill-rule:nonzero;stroke:none"/><rect width="66" height="66" rx="12" ry="12" x="15" y="15" clip-path="url(#W)" style="opacity:.1;fill:url(#X);fill-opacity:1;fill-rule:nonzero;stroke:#fff;stroke-width:.5;stroke-linecap:round;stroke-linejoin:miter;stroke-miterlimit:4;stroke-opacity:1;stroke-dasharray:none;stroke-dashoffset:0;filter:url(#filter3743)"/></g></svg>
